# xmcd
#
# Track frame offsets:
#	150
#	17576
#	33370
#	50704
#	65034
#	79545
#	97632
#	115342
#	133803
#	152401
#	168147
#	182024
#	192512
#	208950
#	223920
#
# Disc length: 3210 seconds
#
# Revision: 5
# Processed by: cddbd v1.5.2PL0 Copyright (c) Steve Scherf et al.
# Submitted via: EZCDAudioConverter 3.0.8.2
#
DISCID=cf0c880f
DTITLE=The BossHoss - Liberty of Action
DYEAR=2011
DGENRE=Country-Rock
TTITLE0=Liberty Of Action
TTITLE1=Don't Gimme That
TTITLE2=Live It Up
TTITLE3=The Answer
TTITLE4=I Keep On Dancing
TTITLE5=My Way
TTITLE6=Still Crazy 'bout Elvis
TTITLE7=Hayday
TTITLE8=My Country
TTITLE9=Sex On Legs
TTITLE10=Riding High, Singing Low
TTITLE11=Money (That's What I Want)
TTITLE12=Run Run Devil
TTITLE13=Killers
TTITLE14=L.O.V.E. (TBH and NENA feat. "Rubbeldiekatz") [Bonus]
EXTD=
EXTT0=
EXTT1=
EXTT2=
EXTT3=
EXTT4=
EXTT5=
EXTT6=
EXTT7=
EXTT8=
EXTT9=
EXTT10=
EXTT11=
EXTT12=
EXTT13=
EXTT14=
PLAYORDER=
